<svg width="1200" height="900" viewBox="0 0 1200 900" fill="none" xmlns="http://www.w3.org/2000/svg">
  <rect width="1200" height="900" fill="#F7F3EE"/>
  <ellipse cx="336" cy="610" rx="170" ry="170" fill="#111111"/>
  <ellipse cx="336" cy="610" rx="136" ry="136" fill="#F7F3EE"/>
  <ellipse cx="336" cy="610" rx="16" ry="16" fill="#111111"/>
  <ellipse cx="874" cy="610" rx="170" ry="170" fill="#111111"/>
  <ellipse cx="874" cy="610" rx="136" ry="136" fill="#F7F3EE"/>
  <ellipse cx="874" cy="610" rx="16" ry="16" fill="#111111"/>
  <path d="M336 610L500 430H690L560 610H336Z" fill="none" stroke="#E5302E" stroke-width="28" stroke-linecap="round" stroke-linejoin="round"/>
  <path d="M560 610L660 330L774 610" fill="none" stroke="#E5302E" stroke-width="28" stroke-linecap="round" stroke-linejoin="round"/>
  <path d="M500 430L630 330L660 330" fill="none" stroke="#E5302E" stroke-width="24" stroke-linecap="round" stroke-linejoin="round"/>
  <path d="M690 430L756 378" fill="none" stroke="#E5302E" stroke-width="22" stroke-linecap="round"/>
  <path d="M756 378L822 392" fill="none" stroke="#111111" stroke-width="14" stroke-linecap="round"/>
  <path d="M760 378L748 286" fill="none" stroke="#111111" stroke-width="14" stroke-linecap="round"/>
  <path d="M748 286L786 246" fill="none" stroke="#111111" stroke-width="14" stroke-linecap="round"/>
  <path d="M748 286L704 286" fill="none" stroke="#111111" stroke-width="14" stroke-linecap="round"/>
  <path d="M630 330L614 260L668 244L684 330" fill="#111111"/>
  <path d="M596 248C596 222 618 200 646 200C674 200 696 222 696 248V258H596V248Z" fill="#2A2A2A"/>
  <path d="M472 386L534 330" fill="none" stroke="#111111" stroke-width="14" stroke-linecap="round"/>
  <path d="M452 392L502 352" fill="none" stroke="#111111" stroke-width="14" stroke-linecap="round"/>
  <path d="M474 378L430 334" fill="none" stroke="#111111" stroke-width="14" stroke-linecap="round"/>
  <circle cx="560" cy="610" r="44" fill="#111111"/>
  <circle cx="560" cy="610" r="20" fill="#F0B000"/>
  <path d="M874 610L986 404" fill="none" stroke="#C9CED6" stroke-width="10" stroke-linecap="round"/>
  <path d="M500 430H690" stroke="#F8A31B" stroke-width="8" stroke-linecap="round" stroke-dasharray="18 16"/>
  <rect x="210" y="724" width="780" height="38" rx="19" fill="#E6DED4"/>
  <text x="600" y="810" text-anchor="middle" fill="#7A5A40" font-family="Georgia, serif" font-size="58" font-weight="700">KUE SEPEDA</text>
  <text x="600" y="860" text-anchor="middle" fill="#9A816A" font-family="Arial, sans-serif" font-size="28">Tampilan playful dengan sentuhan merah yang mencuri perhatian</text>
</svg>
